<?xml version="1.0" encoding="UTF-8"?><svg id="Layer_2" xmlns="http://www.w3.org/2000/svg" xmlns:xlink="http://www.w3.org/1999/xlink" viewBox="0 0 86.03 86.04"><defs><style>.cls-1{fill:url(#linear-gradient);}.cls-2{filter:url(#drop-shadow-1);}.cls-3{fill:#fff;fill-rule:evenodd;}</style><filter id="drop-shadow-1" filterUnits="userSpaceOnUse"><feOffset dx="7" dy="7"/><feGaussianBlur result="blur" stdDeviation="5"/><feFlood flood-color="#000" flood-opacity=".25"/><feComposite in2="blur" operator="in"/><feComposite in="SourceGraphic"/></filter><linearGradient id="linear-gradient" x1="12.6" y1="12.6" x2="73.43" y2="73.44" gradientUnits="userSpaceOnUse"><stop offset=".03" stop-color="#3e68dd"/><stop offset=".99" stop-color="#3c5a99"/></linearGradient></defs><g id="OBJECTS"><g class="cls-2"><path class="cls-1" d="M86.03,43.02c0,23.76-19.26,43.02-43.02,43.02S0,66.78,0,43.02,19.26,0,43.02,0s43.02,19.26,43.02,43.02Z"/><path class="cls-3" d="M36.01,43.51v26.35c0,.38,.31,.69,.69,.69h9.78c.38,0,.69-.31,.69-.69v-26.78h7.09c.36,0,.65-.27,.68-.63l.68-8.07c.03-.4-.28-.75-.69-.75h-7.77v-5.72c0-1.35,1.09-2.43,2.43-2.43h5.47c.38,0,.69-.31,.69-.69v-8.07c0-.38-.31-.69-.69-.69h-9.24c-5.42,0-9.81,4.4-9.81,9.82v7.78h-4.89c-.38,0-.68,.31-.68,.69v8.07c0,.38,.3,.68,.68,.68h4.89v.43Z"/></g></g></svg>