<?xml version="1.0" encoding="UTF-8"?><svg id="Layer_2" xmlns="http://www.w3.org/2000/svg" xmlns:xlink="http://www.w3.org/1999/xlink" viewBox="0 0 86.03 86.04"><defs><style>.cls-1{fill:url(#linear-gradient);}.cls-2{fill:#fff;}.cls-3{filter:url(#drop-shadow-1);}</style><filter id="drop-shadow-1" filterUnits="userSpaceOnUse"><feOffset dx="7" dy="7"/><feGaussianBlur result="blur" stdDeviation="5"/><feFlood flood-color="#000" flood-opacity=".25"/><feComposite in2="blur" operator="in"/><feComposite in="SourceGraphic"/></filter><linearGradient id="linear-gradient" x1="12.6" y1="12.6" x2="73.44" y2="73.44" gradientUnits="userSpaceOnUse"><stop offset=".02" stop-color="#ff74e5"/><stop offset="1" stop-color="#ff6839"/></linearGradient></defs><g id="OBJECTS"><g class="cls-3"><path class="cls-1" d="M86.03,43.02c0,23.76-19.26,43.02-43.02,43.02S0,66.78,0,43.02,19.26,0,43.02,0s43.02,19.26,43.02,43.02Z"/><path class="cls-2" d="M58.25,25.95c-1.85,0-3.34,1.5-3.34,3.34s1.5,3.34,3.34,3.34,3.34-1.49,3.34-3.34-1.5-3.34-3.34-3.34Z"/><path class="cls-2" d="M43.39,28.98c-7.74,0-14.04,6.3-14.04,14.04s6.3,14.04,14.04,14.04,14.04-6.3,14.04-14.04-6.3-14.04-14.04-14.04Zm0,23.03c-4.96,0-8.99-4.03-8.99-8.99s4.03-8.99,8.99-8.99,8.99,4.03,8.99,8.99-4.04,8.99-8.99,8.99Z"/><path class="cls-2" d="M54.66,71.52H31.9c-9.44,0-17.12-7.68-17.12-17.12V31.64c0-9.44,7.68-17.12,17.12-17.12h22.76c9.44,0,17.12,7.68,17.12,17.12v22.76c0,9.44-7.68,17.12-17.12,17.12ZM31.9,19.88c-6.49,0-11.76,5.27-11.76,11.76v22.76c0,6.49,5.27,11.76,11.76,11.76h22.76c6.49,0,11.76-5.27,11.76-11.76V31.64c0-6.48-5.28-11.76-11.76-11.76H31.9Z"/></g></g></svg>