<?xml version="1.0" encoding="UTF-8"?><svg id="Layer_2" xmlns="http://www.w3.org/2000/svg" xmlns:xlink="http://www.w3.org/1999/xlink" viewBox="0 0 86.18 86.04"><defs><style>.cls-1{fill:url(#linear-gradient);}.cls-2{filter:url(#drop-shadow-1);}.cls-3{fill:#fff;fill-rule:evenodd;}</style><filter id="drop-shadow-1" filterUnits="userSpaceOnUse"><feOffset dx="7" dy="7"/><feGaussianBlur result="blur" stdDeviation="5"/><feFlood flood-color="#000" flood-opacity=".25"/><feComposite in2="blur" operator="in"/><feComposite in="SourceGraphic"/></filter><linearGradient id="linear-gradient" x1="12.64" y1="12.58" x2="73.53" y2="73.46" gradientUnits="userSpaceOnUse"><stop offset=".19" stop-color="red"/><stop offset="1" stop-color="#ff3b78"/></linearGradient></defs><g id="OBJECTS"><g class="cls-2"><path class="cls-1" d="M86.18,43.02c0,23.76-19.29,43.02-43.09,43.02S0,66.78,0,43.02,19.29,0,43.09,0s43.09,19.26,43.09,43.02Z"/><g id="tgTxsG.tif"><path class="cls-3" d="M39.49,52.04c-1.68,6.55-2.56,13.37-8.36,18.45-.15-1.18-.29-1.95-.35-2.72-.52-7.29,1.35-14.23,3.22-21.16,.71-2.62,1.3-5.07,.4-7.93-.94-2.95-.18-6.05,1.72-8.68,1.59-2.21,3.84-2.87,6.2-1.9,1.96,.81,2.81,2.53,2.26,5.26-.47,2.35-1.25,4.65-1.86,6.97-.35,1.35-.8,2.69-.94,4.07-.41,3.91,1.93,6.09,5.89,5.62,2.29-.27,4.13-1.42,5.42-3.23,4.31-6.07,5.36-12.72,2.6-19.65-2.03-5.08-8.18-7.58-14.53-6.38-8.16,1.55-14.03,8.89-13.11,16.6,.17,1.45,1.17,2.78,1.54,4.22,.36,1.41,.56,2.91,.52,4.36-.03,1.09-.85,1.35-1.95,.95-3.22-1.18-5.05-3.47-5.82-6.74-1.82-7.8,1.2-15.69,7.86-20.43,7.54-5.37,19.13-5.6,26.85-.5,5.21,3.45,7.51,8.45,7.56,14.56,.06,6.43-1.52,12.27-6,17.17-3.76,4.1-12.16,6.62-17.63,1.94-.37-.32-.86-.5-1.48-.86Z"/></g></g></g></svg>