<svg class="w-full h-auto" xmlns="http://www.w3.org/2000/svg" height="549" viewBox="670 0 549 549" width="549"><linearGradient id="a" x1="79.504%" x2="28.114%" y1="57.767%" y2="80.18%"><stop offset="0" stop-color="#2786d7"/><stop offset="1" stop-color="#096eb4"/></linearGradient><linearGradient id="b" x1="21.08%" x2="86.762%" y1="10.137%" y2="63.244%"><stop offset="0" stop-color="#02addc"/><stop offset="1" stop-color="#08e4cc"/></linearGradient><linearGradient id="c" x1="44.585%" x2="94.874%" y1="106.767%" y2="55.635%"><stop offset="0" stop-color="#0070ec" stop-opacity=".871"/><stop offset=".614" stop-color="#0296e3" stop-opacity=".453"/><stop offset="1" stop-color="#07dfd0" stop-opacity="0"/></linearGradient><linearGradient id="d" x1="50%" x2="48.324%" y1="72.492%" y2="94.162%"><stop offset="0" stop-color="#0089e5" stop-opacity="0"/><stop offset="1" stop-color="#0070ed" stop-opacity=".81"/></linearGradient><g fill="none"><path d="M229.994 459.988C102.972 459.988 0 357.016 0 229.994S102.972 0 229.994 0s229.994 102.972 229.994 229.994-102.972 229.994-229.994 229.994zm0-130.2c55.115 0 99.794-44.68 99.794-99.794s-44.68-99.794-99.794-99.794-99.794 44.68-99.794 99.794 44.68 99.794 99.794 99.794z" fill="url(#a)" transform="rotate(-45 632.527 -607.74)"/><path d="M459.752 226.784c-1.261 34.843-29.905 62.703-65.056 62.703-34.065 0-62.02-26.165-64.862-59.494l-.046.001c0-.196 0-.392-.002-.589a66.01 66.01 0 0 1-.188-5.614c-3.202-52.225-46.572-93.591-99.604-93.591-55.115 0-112.362 43.844-129.883 107.863-26.261 95.957 50.962 198.914 129.842 221.884l.142.041h-.101C102.972 459.988 0 357.016 0 229.994S102.972 0 229.994 0c125.949 0 228.252 101.239 229.972 226.779l-.214.005z" fill="url(#b)" transform="rotate(-45 632.526 -607.74)"/><path d="M459.752 226.784c-1.261 34.843-29.905 62.703-65.056 62.703-34.065 0-62.02-26.165-64.862-59.494l-.046.001c0-.196 0-.392-.002-.589a66.01 66.01 0 0 1-.188-5.614c-3.202-52.225-46.572-93.591-99.604-93.591-55.115 0-112.362 43.844-129.883 107.863-26.261 95.957 50.962 198.914 129.842 221.884l.142.041h-.101C102.972 459.988 0 357.016 0 229.994S102.972 0 229.994 0c125.949 0 228.252 101.239 229.972 226.779l-.214.005z" fill="url(#c)" transform="rotate(-45 632.526 -607.74)"/><path d="M459.752 226.784c-1.261 34.843-29.905 62.703-65.056 62.703-34.065 0-62.02-26.165-64.862-59.494l-.046.001c0-.196 0-.392-.002-.589a66.01 66.01 0 0 1-.188-5.614c-3.202-52.225-46.572-93.591-99.604-93.591-55.115 0-112.362 43.844-129.883 107.863-26.261 95.957 50.962 198.914 129.842 221.884l.142.041h-.101C102.972 459.988 0 357.016 0 229.994S102.972 0 229.994 0c125.949 0 228.252 101.239 229.972 226.779l-.214.005z" fill="url(#d)" transform="rotate(-45 632.526 -607.74)"/></g></svg>